<svg width="30" height="40" viewBox="0 0 30 40" fill="none" xmlns="http://www.w3.org/2000/svg">
<path fill-rule="evenodd" clip-rule="evenodd" d="M14 15.9989L16.3402 8H28V14.0888H26.0021V25.5907H28V31H16.4853L16.4518 28.2784L15.6668 31H11.0013L10.0005 27.5196V31H0V25.5907H1.94951L1.95323 25.5831L1.95695 25.5794L1.96439 25.5643L1.97555 25.5492L1.97927 25.5416L1.98299 25.5378L1.99043 25.519L1.99415 25.5114L1.99787 25.5076V14.0888H0V8H11.6598L14 15.9989ZM1.33192 9.35516V12.7374H1.99787L2.076 12.7412H2.15413L2.22854 12.7487H2.26575L2.29923 12.7563L2.33643 12.7601L2.36992 12.7638L2.4034 12.7714L2.43689 12.7752L2.46665 12.7827L2.50013 12.7903L2.59686 12.8129L2.62291 12.8204L2.65639 12.8318L2.70848 12.8544L2.73824 12.862L2.76428 12.8771L2.79405 12.8884L2.82009 12.9035L2.84241 12.9148L2.86846 12.9299L2.91682 12.9601L2.93914 12.979L2.96147 12.9941L2.98379 13.013L3.02471 13.0507L3.04332 13.0734L3.06564 13.0922L3.09912 13.1338L3.11773 13.1602L3.13633 13.1828L3.15121 13.2055L3.16237 13.2319L3.19585 13.2848L3.20702 13.315L3.2219 13.3414L3.22934 13.3753L3.24422 13.4018L3.26654 13.4659L3.27398 13.4961L3.28143 13.5339L3.29259 13.5679L3.29631 13.6018L3.30375 13.6396L3.31491 13.7151L3.32607 13.7944V13.8321L3.32979 13.8774V13.9189L3.33351 13.9642V25.6096L3.32979 25.6247V25.6473L3.32607 25.6888L3.32235 25.7152L3.31863 25.7341L3.30747 25.7832L3.30003 25.8096L3.28515 25.8587L3.27026 25.9115L3.2591 25.938L3.25166 25.9682L3.21818 26.0474L3.17725 26.138L3.16237 26.1645L3.11773 26.2513L3.08052 26.3041L3.04332 26.3645L3.02099 26.3909L3.00611 26.4174L2.93914 26.4966L2.84241 26.6023L2.79033 26.6476L2.76056 26.6741L2.73452 26.6929L2.67871 26.7344L2.64895 26.7571L2.61919 26.776L2.55594 26.8137L2.52246 26.8288L2.49269 26.8439L2.422 26.8703L2.38852 26.8854L2.27691 26.9156L2.2025 26.9307L2.12065 26.9383L2.08344 26.9421H1.33192V29.6486H8.6649V26.9421H7.33298V13.4131L11.9984 29.6486H14.666L19.3351 13.4131V26.9421H17.7651L17.7986 29.6486H26.6681V26.9421H25.6226L25.5929 26.9383H25.5668L25.5073 26.9307L25.4552 26.9232L25.4255 26.9156L25.3994 26.9119L25.3473 26.893L25.325 26.8854L25.299 26.8779L25.2729 26.8666L25.2506 26.8515L25.2283 26.8401L25.1799 26.8137L25.1576 26.8024L25.0757 26.7382L25.0571 26.7231L25.0013 26.6665L24.9864 26.6476L24.9492 26.6023L24.9344 26.5835L24.9158 26.5608L24.9009 26.5382L24.8897 26.5155L24.8711 26.4891L24.86 26.4664L24.8451 26.44L24.8079 26.3645L24.7967 26.3343L24.7855 26.3079L24.7781 26.2777L24.7558 26.2248L24.7483 26.1909L24.7372 26.1607L24.7297 26.1343L24.7223 26.1003L24.7074 26.0399L24.7 25.9719L24.6888 25.9417V25.9078L24.6814 25.8738V25.836L24.6739 25.8021V25.7341L24.6702 25.6964L24.6665 25.6624V14.0397L24.6702 13.9906V13.9378L24.6851 13.7566L24.6963 13.6736L24.7186 13.5528L24.726 13.515L24.7372 13.481L24.7595 13.4093L24.7669 13.3791L24.793 13.315L24.8079 13.2848L24.8376 13.2281L24.8525 13.2017L24.8711 13.1753L24.886 13.1489L24.9232 13.0998L24.9604 13.0583L25.0013 13.0167L25.0423 12.979L25.0646 12.9601L25.1353 12.9148L25.1613 12.8997L25.1836 12.8884L25.2097 12.8733L25.2394 12.862L25.2655 12.8469L25.325 12.828L25.351 12.8204L25.3808 12.8091L25.4106 12.8016L25.4701 12.7827L25.5371 12.7752L25.5668 12.7676L25.6003 12.7601L25.6375 12.7563L25.7045 12.7487L25.7752 12.745L25.924 12.7374H26.6681V9.35516H17.3335L14 20.7551L10.6665 9.35516H1.33192ZM17.2219 25.5907H17.9995V22.8841L17.2219 25.5907ZM8.6649 25.5907H9.44619L8.6649 22.8841V25.5907Z" fill="black"/>
</svg>
