<svg width="37" height="40" viewBox="0 0 37 40" fill="none" xmlns="http://www.w3.org/2000/svg">
<path d="M28.2083 11.3718C24.7035 11.3718 21.64 13.9459 20.7028 17.6965C18.7627 14.3847 17.4679 10.5385 16.9898 9H12.625V20.4636C12.625 22.425 11.1949 24.0212 9.4375 24.0212C7.68012 24.0212 6.25 22.425 6.25 20.4636V9H2V20.4636C2 25.0411 5.33625 28.7648 9.4375 28.7648C13.5387 28.7648 16.875 25.0411 16.875 20.4636V19.8366C17.6329 21.1814 18.4907 22.4883 19.4448 23.6323C18.5516 27.8556 17.4062 33.2862 16.8587 35.8801H21.2249C21.7653 33.3194 22.4623 30.0163 23.0963 27.0144C24.4676 27.9552 26.2066 28.7648 28.2083 28.7648C32.5044 28.7648 36 24.8632 36 20.0683C36 15.2733 32.5044 11.3718 28.2083 11.3718Z" stroke="white" stroke-width="1.2" stroke-miterlimit="10" stroke-linejoin="round"/>
<path d="M27.7386 23.5588C26.2864 23.5588 24.9425 22.5066 24.0005 21.5894C24.3273 19.9265 24.5491 18.8007 24.5798 18.6572C24.9497 16.9269 26.2492 15.7188 27.7386 15.7188C29.5372 15.7188 31.0005 17.4773 31.0005 19.6388C31.0005 21.8003 29.5372 23.5588 27.7386 23.5588Z" stroke="white" stroke-width="1.2" stroke-miterlimit="10" stroke-linejoin="round"/>
</svg>
