<svg width="30" height="40" viewBox="0 0 30 40" fill="none" xmlns="http://www.w3.org/2000/svg">
<path d="M15.1 8C12.6356 8 10.3428 8.74114 8.42938 10.0098C8.31933 10.0724 8.20964 10.1357 8.10674 10.2071C8.06105 10.2379 8.02048 10.2757 7.98652 10.3191C4.96657 12.5207 3 16.0824 3 20.1C3 26.7753 8.42466 32.2 15.1 32.2C18.3362 32.2 21.2695 30.9167 23.4414 28.8421C23.5057 28.8022 23.5608 28.749 23.6027 28.6859C25.4656 26.8397 26.7402 24.4005 27.0952 21.67C27.1003 21.6436 27.1034 21.6168 27.1044 21.5899C27.1647 21.1013 27.2 20.6047 27.2 20.1C27.2 18.9632 27.0399 17.8638 26.7458 16.8202C26.7391 16.7668 26.7242 16.7149 26.7017 16.6661L26.6996 16.6619C25.2153 11.6583 20.5809 8 15.1 8ZM15.1 9.05217C19.9668 9.05217 24.0903 12.1924 25.5652 16.5582C25.5633 16.5615 25.56 16.5662 25.558 16.5695C25.5243 16.6244 25.4996 16.6692 25.4748 16.7092C25.3755 16.8694 25.3731 16.9435 25.0957 16.9435C24.7598 16.9435 24.2875 16.6059 23.7034 15.9006C23.1192 15.1953 22.4569 14.2027 21.6422 13.1931C20.0809 11.2583 17.8834 9.23585 14.4938 9.06964C14.6945 9.05881 14.8966 9.05217 15.1 9.05217ZM12.9957 10.1023V10.1043C12.9957 10.2439 13.0511 10.3777 13.1497 10.4763C13.2484 10.575 13.3822 10.6304 13.5217 10.6304C13.6613 10.6304 13.7951 10.575 13.8937 10.4763C13.9924 10.3777 14.0478 10.2439 14.0478 10.1043C14.8594 10.1043 15.5911 10.2187 16.257 10.4198H16.258C16.3069 10.4851 16.3704 10.5381 16.4433 10.5747C16.5162 10.6112 16.5967 10.6303 16.6783 10.6304C16.7223 10.6301 16.7662 10.6242 16.8088 10.613C17.2358 10.7815 17.6331 10.9869 18.0068 11.2202C17.9234 11.2652 17.8536 11.332 17.805 11.4134C17.7563 11.4948 17.7306 11.5878 17.7304 11.6826C17.7304 11.8221 17.7859 11.9559 17.8845 12.0546C17.9832 12.1533 18.117 12.2087 18.2565 12.2087C18.382 12.2087 18.5034 12.1639 18.5987 12.0823C18.694 12.0007 18.7571 11.8878 18.7764 11.7638C19.1545 12.0629 19.5012 12.3926 19.8317 12.7348C19.6927 12.7356 19.5597 12.7914 19.4617 12.89C19.3637 12.9885 19.3087 13.1219 19.3087 13.2609C19.3087 13.4004 19.3641 13.5342 19.4628 13.6329C19.5614 13.7315 19.6953 13.787 19.8348 13.787C19.9665 13.7869 20.0933 13.7375 20.1904 13.6485C20.2874 13.5595 20.3475 13.4373 20.3588 13.3061C20.5167 13.4877 20.6739 13.6697 20.8233 13.8548C20.9574 14.021 21.0834 14.1871 21.2106 14.3531C21.1147 14.3931 21.0328 14.4606 20.9752 14.5471C20.9176 14.6336 20.8869 14.7352 20.887 14.8391C20.887 14.9787 20.9424 15.1125 21.041 15.2111C21.1397 15.3098 21.2735 15.3652 21.413 15.3652C21.4918 15.3651 21.5695 15.3473 21.6405 15.3132C21.7114 15.279 21.7738 15.2294 21.823 15.1679C22.072 15.506 22.3121 15.8288 22.5474 16.1338C22.4935 16.2185 22.465 16.317 22.4652 16.4174C22.4652 16.5569 22.5206 16.6907 22.6193 16.7894C22.718 16.8881 22.8518 16.9435 22.9913 16.9435C23.0593 16.9434 23.1267 16.9301 23.1896 16.9044C23.4839 17.2309 23.7879 17.5218 24.1236 17.7172C24.0714 17.8007 24.0436 17.8972 24.0435 17.9957C24.0435 18.1352 24.0989 18.269 24.1976 18.3677C24.2962 18.4663 24.43 18.5217 24.5696 18.5217C24.7091 18.5217 24.8429 18.4663 24.9416 18.3677C25.0402 18.269 25.0957 18.1352 25.0957 17.9957C25.435 17.9957 25.6899 17.8774 25.8909 17.7295C25.9851 18.161 26.0515 18.6024 26.0944 19.0509C25.9649 19.0641 25.8448 19.1249 25.7575 19.2215C25.6702 19.3181 25.6218 19.4437 25.6217 19.5739C25.6217 19.7134 25.6772 19.8473 25.7758 19.9459C25.8745 20.0446 26.0083 20.1 26.1478 20.1C26.1478 20.3957 26.1326 20.6877 26.1098 20.9775C25.3954 20.8355 24.4569 20.396 23.4753 19.7784C23.5028 19.7137 23.5172 19.6442 23.5174 19.5739C23.5174 19.4344 23.462 19.3006 23.3633 19.2019C23.2646 19.1033 23.1308 19.0478 22.9913 19.0478C22.9222 19.048 22.8537 19.0618 22.7899 19.0884C22.7261 19.115 22.6681 19.1539 22.6193 19.203C22.29 18.97 21.9624 18.7272 21.634 18.4724C21.725 18.4303 21.8021 18.363 21.8561 18.2786C21.9102 18.1941 21.939 18.0959 21.9391 17.9957C21.9391 17.8561 21.8837 17.7223 21.785 17.6237C21.6864 17.525 21.5526 17.4696 21.413 17.4696C21.2923 17.4696 21.1752 17.5112 21.0814 17.5873C20.9877 17.6635 20.923 17.7696 20.8983 17.8878C20.5138 17.573 20.1407 17.2567 19.7793 16.9404C19.7977 16.9424 19.8162 16.9434 19.8348 16.9435C19.9743 16.9435 20.1081 16.8881 20.2068 16.7894C20.3054 16.6907 20.3609 16.5569 20.3609 16.4174C20.3609 16.2779 20.3054 16.1441 20.2068 16.0454C20.1081 15.9467 19.9743 15.8913 19.8348 15.8913C19.6953 15.8913 19.5614 15.9467 19.4628 16.0454C19.3641 16.1441 19.3087 16.2779 19.3087 16.4174C19.3087 16.4586 19.3135 16.4996 19.3231 16.5397C18.9134 16.1793 18.475 15.7551 18.0212 15.3097C18.0943 15.3462 18.1748 15.3652 18.2565 15.3652C18.3961 15.3652 18.5299 15.3098 18.6285 15.2111C18.7272 15.1125 18.7826 14.9787 18.7826 14.8391C18.7826 14.6996 18.7272 14.5658 18.6285 14.4671C18.5299 14.3685 18.3961 14.313 18.2565 14.313C18.117 14.313 17.9832 14.3685 17.8845 14.4671C17.7859 14.5658 17.7304 14.6996 17.7304 14.8391C17.7309 14.9244 17.752 15.0084 17.7921 15.0837C17.0566 14.3606 16.2717 13.5913 15.4278 12.8899C13.9455 11.6581 12.2688 10.6304 10.3652 10.6304C10.0606 10.6304 9.7786 10.6473 9.5093 10.6726C9.67345 10.6112 9.84833 10.5567 10.0272 10.5061C10.1217 10.586 10.2414 10.6301 10.3652 10.6304C10.4669 10.6302 10.5664 10.6004 10.6516 10.5448C10.7367 10.4892 10.8039 10.4101 10.8451 10.317C11.2187 10.2469 11.5964 10.1936 11.9548 10.1609C12.3432 10.1254 12.6857 10.1106 12.9957 10.1023ZM15.1 11.1565C14.9605 11.1565 14.8267 11.2119 14.728 11.3106C14.6293 11.4093 14.5739 11.5431 14.5739 11.6826C14.5739 11.8221 14.6293 11.9559 14.728 12.0546C14.8267 12.1533 14.9605 12.2087 15.1 12.2087C15.2395 12.2087 15.3733 12.1533 15.472 12.0546C15.5707 11.9559 15.6261 11.8221 15.6261 11.6826C15.6261 11.5431 15.5707 11.4093 15.472 11.3106C15.3733 11.2119 15.2395 11.1565 15.1 11.1565ZM10.3652 11.6826C11.8833 11.6826 13.3538 12.5354 14.7548 13.6996C16.1557 14.8638 17.4564 16.3107 18.6788 17.3771C19.8719 18.4428 21.2688 19.5986 22.643 20.5018C23.7986 21.2613 24.9228 21.8568 25.9773 22.0297C25.9142 22.3881 25.8335 22.7403 25.7368 23.086C21.8881 22.9732 19.0107 20.9417 16.3823 18.8218C13.678 16.6406 11.2615 14.313 8.26087 14.313C6.96622 14.313 5.92765 14.7773 5.15059 15.319C5.57522 14.4362 6.10882 13.618 6.7422 12.8848C6.78388 12.8564 6.82125 12.8221 6.85318 12.7831C6.85318 12.7831 7.02437 12.5557 7.57244 12.2703C8.1205 11.9849 9.01026 11.6826 10.3652 11.6826ZM16.6783 12.7348C16.5387 12.7348 16.4049 12.7902 16.3063 12.8889C16.2076 12.9875 16.1522 13.1213 16.1522 13.2609C16.1522 13.4004 16.2076 13.5342 16.3063 13.6329C16.4049 13.7315 16.5387 13.787 16.6783 13.787C16.8178 13.787 16.9516 13.7315 17.0503 13.6329C17.1489 13.5342 17.2043 13.4004 17.2043 13.2609C17.2043 13.1213 17.1489 12.9875 17.0503 12.8889C16.9516 12.7902 16.8178 12.7348 16.6783 12.7348ZM8.26087 15.3652C9.02671 15.3652 9.77732 15.571 10.5327 15.9201C10.4788 15.9015 10.4222 15.8918 10.3652 15.8913C10.2257 15.8913 10.0919 15.9467 9.99322 16.0454C9.89456 16.1441 9.83913 16.2779 9.83913 16.4174C9.83913 16.5569 9.89456 16.6907 9.99322 16.7894C10.0919 16.8881 10.2257 16.9435 10.3652 16.9435C10.5047 16.9435 10.6386 16.8881 10.7372 16.7894C10.8359 16.6907 10.8913 16.5569 10.8913 16.4174C10.8912 16.3319 10.8703 16.2478 10.8304 16.1723C10.7904 16.0967 10.7327 16.032 10.6622 15.9838C12.2655 16.7588 13.8925 18.1654 15.7216 19.6407C16.3621 20.1573 17.0295 20.6774 17.7315 21.1727C17.7368 21.3085 17.7944 21.4369 17.8923 21.5312C17.9901 21.6254 18.1207 21.6781 18.2565 21.6783C18.319 21.6779 18.381 21.6664 18.4394 21.6444C18.7918 21.875 19.1543 22.0947 19.5255 22.305C19.4584 22.3538 19.4037 22.4178 19.3661 22.4917C19.3284 22.5657 19.3087 22.6475 19.3087 22.7304C19.3087 22.87 19.3641 23.0038 19.4628 23.1024C19.5614 23.2011 19.6953 23.2565 19.8348 23.2565C19.9696 23.2564 20.0993 23.2046 20.197 23.1116C20.2947 23.0187 20.353 22.8918 20.3598 22.7572C21.5193 23.3298 22.7745 23.7704 24.1524 23.9891C24.082 24.0808 24.0437 24.1931 24.0435 24.3087C24.0435 24.4482 24.0989 24.582 24.1976 24.6807C24.2962 24.7794 24.43 24.8348 24.5696 24.8348C24.7091 24.8348 24.8429 24.7794 24.9416 24.6807C25.0402 24.582 25.0957 24.4482 25.0957 24.3087C25.0954 24.2358 25.08 24.1637 25.0504 24.097C25.1636 24.1064 25.2747 24.1195 25.3895 24.1258C25.1385 24.7677 24.8217 25.3749 24.4607 25.9517C24.3248 26.0227 22.5344 26.9391 20.3609 26.9391C17.6912 26.9391 15.6571 26.5681 14.016 26.0647C14.0368 26.0077 14.0475 25.9476 14.0478 25.887C14.0478 25.7474 13.9924 25.6136 13.8937 25.515C13.7951 25.4163 13.6613 25.3609 13.5217 25.3609C13.4102 25.3611 13.3017 25.3967 13.2117 25.4627C13.1218 25.5286 13.0551 25.6214 13.0213 25.7277C12.5147 25.5397 12.0416 25.3433 11.6075 25.1451C10.6797 24.7216 9.89857 24.2859 9.15789 23.9357C9.0687 23.8468 8.95057 23.7928 8.82497 23.7836H8.82395C8.11065 23.4706 7.42603 23.2565 6.68261 23.2565C5.78826 23.2565 5.15313 23.6634 4.7889 24.0693C4.66283 23.7416 4.55428 23.4052 4.45907 23.0633C4.53602 22.9695 4.57813 22.8518 4.57826 22.7304C4.57807 22.6292 4.5487 22.5302 4.49366 22.4453C4.43862 22.3604 4.36025 22.2931 4.26795 22.2516C4.12978 21.5554 4.05217 20.8371 4.05217 20.1C4.1917 20.1 4.32551 20.0446 4.42417 19.9459C4.52283 19.8473 4.57826 19.7134 4.57826 19.5739C4.5782 19.4439 4.52996 19.3184 4.44287 19.2219C4.35577 19.1253 4.23599 19.0644 4.10663 19.0509C4.15331 18.5633 4.22755 18.0838 4.33474 17.6165C4.34972 17.5983 4.36345 17.579 4.37584 17.559C4.37584 17.559 5.7466 15.3652 8.26087 15.3652ZM7.2087 15.8913C7.06917 15.8913 6.93536 15.9467 6.8367 16.0454C6.73804 16.1441 6.68261 16.2779 6.68261 16.4174C6.68261 16.5569 6.73804 16.6907 6.8367 16.7894C6.93536 16.8881 7.06917 16.9435 7.2087 16.9435C7.34822 16.9435 7.48204 16.8881 7.5807 16.7894C7.67936 16.6907 7.73478 16.5569 7.73478 16.4174C7.73478 16.2779 7.67936 16.1441 7.5807 16.0454C7.48204 15.9467 7.34822 15.8913 7.2087 15.8913ZM5.63043 17.4696C5.49091 17.4696 5.3571 17.525 5.25844 17.6237C5.15977 17.7223 5.10435 17.8561 5.10435 17.9957C5.10435 18.1352 5.15977 18.269 5.25844 18.3677C5.3571 18.4663 5.49091 18.5217 5.63043 18.5217C5.76996 18.5217 5.90377 18.4663 6.00243 18.3677C6.1011 18.269 6.15652 18.1352 6.15652 17.9957C6.15652 17.8561 6.1011 17.7223 6.00243 17.6237C5.90377 17.525 5.76996 17.4696 5.63043 17.4696ZM8.78696 17.4696C8.64743 17.4696 8.51362 17.525 8.41496 17.6237C8.3163 17.7223 8.26087 17.8561 8.26087 17.9957C8.26087 18.1352 8.3163 18.269 8.41496 18.3677C8.51362 18.4663 8.64743 18.5217 8.78696 18.5217C8.92648 18.5217 9.0603 18.4663 9.15896 18.3677C9.25762 18.269 9.31304 18.1352 9.31304 17.9957C9.31304 17.8561 9.25762 17.7223 9.15896 17.6237C9.0603 17.525 8.92648 17.4696 8.78696 17.4696ZM11.9435 17.4696C11.804 17.4696 11.6701 17.525 11.5715 17.6237C11.4728 17.7223 11.4174 17.8561 11.4174 17.9957C11.4174 18.1352 11.4728 18.269 11.5715 18.3677C11.6701 18.4663 11.804 18.5217 11.9435 18.5217C12.083 18.5217 12.2168 18.4663 12.3155 18.3677C12.4141 18.269 12.4696 18.1352 12.4696 17.9957C12.4696 17.8561 12.4141 17.7223 12.3155 17.6237C12.2168 17.525 12.083 17.4696 11.9435 17.4696ZM7.2087 19.0478C7.06917 19.0478 6.93536 19.1033 6.8367 19.2019C6.73804 19.3006 6.68261 19.4344 6.68261 19.5739C6.68261 19.7134 6.73804 19.8473 6.8367 19.9459C6.93536 20.0446 7.06917 20.1 7.2087 20.1C7.34822 20.1 7.48204 20.0446 7.5807 19.9459C7.67936 19.8473 7.73478 19.7134 7.73478 19.5739C7.73478 19.4344 7.67936 19.3006 7.5807 19.2019C7.48204 19.1033 7.34822 19.0478 7.2087 19.0478ZM10.3652 19.0478C10.2257 19.0478 10.0919 19.1033 9.99322 19.2019C9.89456 19.3006 9.83913 19.4344 9.83913 19.5739C9.83913 19.7134 9.89456 19.8473 9.99322 19.9459C10.0919 20.0446 10.2257 20.1 10.3652 20.1C10.5047 20.1 10.6386 20.0446 10.7372 19.9459C10.8359 19.8473 10.8913 19.7134 10.8913 19.5739C10.8913 19.4344 10.8359 19.3006 10.7372 19.2019C10.6386 19.1033 10.5047 19.0478 10.3652 19.0478ZM13.5217 19.0478C13.3822 19.0478 13.2484 19.1033 13.1497 19.2019C13.0511 19.3006 12.9957 19.4344 12.9957 19.5739C12.9957 19.7134 13.0511 19.8473 13.1497 19.9459C13.2484 20.0446 13.3822 20.1 13.5217 20.1C13.6613 20.1 13.7951 20.0446 13.8937 19.9459C13.9924 19.8473 14.0478 19.7134 14.0478 19.5739C14.0478 19.4344 13.9924 19.3006 13.8937 19.2019C13.7951 19.1033 13.6613 19.0478 13.5217 19.0478ZM5.63043 20.6261C5.49091 20.6261 5.3571 20.6815 5.25844 20.7802C5.15977 20.8788 5.10435 21.0126 5.10435 21.1522C5.10435 21.2917 5.15977 21.4255 5.25844 21.5242C5.3571 21.6228 5.49091 21.6783 5.63043 21.6783C5.76996 21.6783 5.90377 21.6228 6.00243 21.5242C6.1011 21.4255 6.15652 21.2917 6.15652 21.1522C6.15652 21.0126 6.1011 20.8788 6.00243 20.7802C5.90377 20.6815 5.76996 20.6261 5.63043 20.6261ZM8.78696 20.6261C8.64743 20.6261 8.51362 20.6815 8.41496 20.7802C8.3163 20.8788 8.26087 21.0126 8.26087 21.1522C8.26087 21.2917 8.3163 21.4255 8.41496 21.5242C8.51362 21.6228 8.64743 21.6783 8.78696 21.6783C8.92648 21.6783 9.0603 21.6228 9.15896 21.5242C9.25762 21.4255 9.31304 21.2917 9.31304 21.1522C9.31304 21.0126 9.25762 20.8788 9.15896 20.7802C9.0603 20.6815 8.92648 20.6261 8.78696 20.6261ZM11.9435 20.6261C11.804 20.6261 11.6701 20.6815 11.5715 20.7802C11.4728 20.8788 11.4174 21.0126 11.4174 21.1522C11.4174 21.2917 11.4728 21.4255 11.5715 21.5242C11.6701 21.6228 11.804 21.6783 11.9435 21.6783C12.083 21.6783 12.2168 21.6228 12.3155 21.5242C12.4141 21.4255 12.4696 21.2917 12.4696 21.1522C12.4696 21.0126 12.4141 20.8788 12.3155 20.7802C12.2168 20.6815 12.083 20.6261 11.9435 20.6261ZM15.1 20.6261C14.9605 20.6261 14.8267 20.6815 14.728 20.7802C14.6293 20.8788 14.5739 21.0126 14.5739 21.1522C14.5739 21.2917 14.6293 21.4255 14.728 21.5242C14.8267 21.6228 14.9605 21.6783 15.1 21.6783C15.2395 21.6783 15.3733 21.6228 15.472 21.5242C15.5707 21.4255 15.6261 21.2917 15.6261 21.1522C15.6261 21.0126 15.5707 20.8788 15.472 20.7802C15.3733 20.6815 15.2395 20.6261 15.1 20.6261ZM7.2087 22.2043C7.06917 22.2043 6.93536 22.2598 6.8367 22.3584C6.73804 22.4571 6.68261 22.5909 6.68261 22.7304C6.68261 22.87 6.73804 23.0038 6.8367 23.1024C6.93536 23.2011 7.06917 23.2565 7.2087 23.2565C7.34822 23.2565 7.48204 23.2011 7.5807 23.1024C7.67936 23.0038 7.73478 22.87 7.73478 22.7304C7.73478 22.5909 7.67936 22.4571 7.5807 22.3584C7.48204 22.2598 7.34822 22.2043 7.2087 22.2043ZM10.3652 22.2043C10.2257 22.2043 10.0919 22.2598 9.99322 22.3584C9.89456 22.4571 9.83913 22.5909 9.83913 22.7304C9.83913 22.87 9.89456 23.0038 9.99322 23.1024C10.0919 23.2011 10.2257 23.2565 10.3652 23.2565C10.5047 23.2565 10.6386 23.2011 10.7372 23.1024C10.8359 23.0038 10.8913 22.87 10.8913 22.7304C10.8913 22.5909 10.8359 22.4571 10.7372 22.3584C10.6386 22.2598 10.5047 22.2043 10.3652 22.2043ZM13.5217 22.2043C13.3822 22.2043 13.2484 22.2598 13.1497 22.3584C13.0511 22.4571 12.9957 22.5909 12.9957 22.7304C12.9957 22.87 13.0511 23.0038 13.1497 23.1024C13.2484 23.2011 13.3822 23.2565 13.5217 23.2565C13.6613 23.2565 13.7951 23.2011 13.8937 23.1024C13.9924 23.0038 14.0478 22.87 14.0478 22.7304C14.0478 22.5909 13.9924 22.4571 13.8937 22.3584C13.7951 22.2598 13.6613 22.2043 13.5217 22.2043ZM16.6783 22.2043C16.5387 22.2043 16.4049 22.2598 16.3063 22.3584C16.2076 22.4571 16.1522 22.5909 16.1522 22.7304C16.1522 22.87 16.2076 23.0038 16.3063 23.1024C16.4049 23.2011 16.5387 23.2565 16.6783 23.2565C16.8178 23.2565 16.9516 23.2011 17.0503 23.1024C17.1489 23.0038 17.2043 22.87 17.2043 22.7304C17.2043 22.5909 17.1489 22.4571 17.0503 22.3584C16.9516 22.2598 16.8178 22.2043 16.6783 22.2043ZM11.9435 23.7826C11.804 23.7826 11.6701 23.838 11.5715 23.9367C11.4728 24.0354 11.4174 24.1692 11.4174 24.3087C11.4174 24.4482 11.4728 24.582 11.5715 24.6807C11.6701 24.7794 11.804 24.8348 11.9435 24.8348C12.083 24.8348 12.2168 24.7794 12.3155 24.6807C12.4141 24.582 12.4696 24.4482 12.4696 24.3087C12.4696 24.1692 12.4141 24.0354 12.3155 23.9367C12.2168 23.838 12.083 23.7826 11.9435 23.7826ZM15.1 23.7826C14.9605 23.7826 14.8267 23.838 14.728 23.9367C14.6293 24.0354 14.5739 24.1692 14.5739 24.3087C14.5739 24.4482 14.6293 24.582 14.728 24.6807C14.8267 24.7794 14.9605 24.8348 15.1 24.8348C15.2395 24.8348 15.3733 24.7794 15.472 24.6807C15.5707 24.582 15.6261 24.4482 15.6261 24.3087C15.6261 24.1692 15.5707 24.0354 15.472 23.9367C15.3733 23.838 15.2395 23.7826 15.1 23.7826ZM18.2565 23.7826C18.117 23.7826 17.9832 23.838 17.8845 23.9367C17.7859 24.0354 17.7304 24.1692 17.7304 24.3087C17.7304 24.4482 17.7859 24.582 17.8845 24.6807C17.9832 24.7794 18.117 24.8348 18.2565 24.8348C18.3961 24.8348 18.5299 24.7794 18.6285 24.6807C18.7272 24.582 18.7826 24.4482 18.7826 24.3087C18.7826 24.1692 18.7272 24.0354 18.6285 23.9367C18.5299 23.838 18.3961 23.7826 18.2565 23.7826ZM21.413 23.7826C21.2735 23.7826 21.1397 23.838 21.041 23.9367C20.9424 24.0354 20.887 24.1692 20.887 24.3087C20.887 24.4482 20.9424 24.582 21.041 24.6807C21.1397 24.7794 21.2735 24.8348 21.413 24.8348C21.5526 24.8348 21.6864 24.7794 21.785 24.6807C21.8837 24.582 21.9391 24.4482 21.9391 24.3087C21.9391 24.1692 21.8837 24.0354 21.785 23.9367C21.6864 23.838 21.5526 23.7826 21.413 23.7826ZM6.68261 24.3087C7.83315 24.3087 9.11149 25.1627 11.1708 26.1027C13.2301 27.0428 16.0574 27.9913 20.3609 27.9913C21.4595 27.9913 22.4549 27.7814 23.2502 27.5433C23.1165 27.6897 22.9785 27.8317 22.8372 27.9708C22.6842 28.0535 20.7978 29.0435 17.7304 29.0435C16.1532 29.0435 14.9202 28.6723 13.8475 28.2852C12.7747 27.898 11.8683 27.4652 10.8913 27.4652C10.2788 27.4652 9.7487 27.7495 9.53807 28.1906C9.32744 28.6318 9.38694 29.0793 9.48361 29.4781C9.49706 29.5336 9.51832 29.5829 9.53396 29.6374C7.73998 28.5864 6.26637 27.0476 5.30266 25.1975C5.3179 25.1527 5.37828 24.9886 5.56159 24.7803C5.77166 24.5417 6.0786 24.3087 6.68261 24.3087ZM16.6783 25.3609C16.5387 25.3609 16.4049 25.4163 16.3063 25.515C16.2076 25.6136 16.1522 25.7474 16.1522 25.887C16.1522 26.0265 16.2076 26.1603 16.3063 26.259C16.4049 26.3576 16.5387 26.413 16.6783 26.413C16.8178 26.413 16.9516 26.3576 17.0503 26.259C17.1489 26.1603 17.2043 26.0265 17.2043 25.887C17.2043 25.7474 17.1489 25.6136 17.0503 25.515C16.9516 25.4163 16.8178 25.3609 16.6783 25.3609ZM19.8348 25.3609C19.6953 25.3609 19.5614 25.4163 19.4628 25.515C19.3641 25.6136 19.3087 25.7474 19.3087 25.887C19.3087 26.0265 19.3641 26.1603 19.4628 26.259C19.5614 26.3576 19.6953 26.413 19.8348 26.413C19.9743 26.413 20.1081 26.3576 20.2068 26.259C20.3054 26.1603 20.3609 26.0265 20.3609 25.887C20.3609 25.7474 20.3054 25.6136 20.2068 25.515C20.1081 25.4163 19.9743 25.3609 19.8348 25.3609ZM22.9913 25.3609C22.8518 25.3609 22.718 25.4163 22.6193 25.515C22.5206 25.6136 22.4652 25.7474 22.4652 25.887C22.4652 26.0265 22.5206 26.1603 22.6193 26.259C22.718 26.3576 22.8518 26.413 22.9913 26.413C23.1308 26.413 23.2646 26.3576 23.3633 26.259C23.462 26.1603 23.5174 26.0265 23.5174 25.887C23.5174 25.7474 23.462 25.6136 23.3633 25.515C23.2646 25.4163 23.1308 25.3609 22.9913 25.3609ZM10.8913 28.5174C11.5246 28.5174 12.377 28.8737 13.4909 29.2757C14.6049 29.6777 15.9865 30.0957 17.7304 30.0957C18.6731 30.0957 19.5139 29.9997 20.254 29.8655C19.7798 30.1174 19.2845 30.3344 18.7723 30.5159C18.7479 30.3972 18.6833 30.2905 18.5893 30.2139C18.4953 30.1373 18.3778 30.0955 18.2565 30.0957C18.117 30.0957 17.9832 30.1511 17.8845 30.2497C17.7859 30.3484 17.7304 30.4822 17.7304 30.6217C17.7304 30.689 17.7434 30.7556 17.7685 30.818C16.9142 31.0311 16.0214 31.1478 15.1 31.1478C15.2395 31.1478 15.3733 31.0924 15.472 30.9937C15.5707 30.8951 15.6261 30.7613 15.6261 30.6217C15.6261 30.4822 15.5707 30.3484 15.472 30.2497C15.3733 30.1511 15.2395 30.0957 15.1 30.0957C14.9605 30.0957 14.8267 30.1511 14.728 30.2497C14.6293 30.3484 14.5739 30.4822 14.5739 30.6217C14.5738 30.7544 14.6238 30.8822 14.7139 30.9796C14.804 31.077 14.9276 31.1367 15.0599 31.1468C14.1528 31.1436 13.2739 31.0262 12.4315 30.817C12.4565 30.7549 12.4694 30.6886 12.4696 30.6217C12.4696 30.4822 12.4141 30.3484 12.3155 30.2497C12.2168 30.1511 12.083 30.0957 11.9435 30.0957C11.8218 30.0957 11.7039 30.1379 11.6099 30.2151C11.5158 30.2923 11.4514 30.3997 11.4277 30.519C11.2721 30.4641 11.1196 30.4028 10.9673 30.3412C10.9043 30.2289 10.7378 29.9166 10.5974 29.5141C10.6854 29.4708 10.7595 29.4038 10.8114 29.3207C10.8634 29.2375 10.891 29.1415 10.8913 29.0435C10.8913 28.9385 10.8599 28.8359 10.8011 28.749C10.7423 28.662 10.6589 28.5946 10.5615 28.5554C10.6115 28.5319 10.7036 28.5174 10.8913 28.5174Z" fill="black"/>
</svg>
